<svg xmlns="http://www.w3.org/2000/svg" viewBox="0 0 192 108" width="192" height="108" shape-rendering="crispEdges">
  <rect width="192" height="108" fill="#101c30"/>
  <rect x="0" y="88" width="192" height="20" fill="#0a1420"/>
  <g fill="#16283e" stroke="#223a58" stroke-width="1">
    <rect x="8" y="52" width="34" height="36"/><rect x="150" y="52" width="34" height="36"/>
    <rect x="48" y="60" width="26" height="28"/><rect x="118" y="60" width="26" height="28"/>
  </g>
  <g fill="#0d1626">
    <rect x="86" y="30" width="20" height="58"/>
  </g>
  <rect x="82" y="18" width="28" height="14" fill="#1a2c44"/>
  <circle cx="96" cy="25" r="6" fill="#e8dcae"/>
  <line x1="96" y1="25" x2="96" y2="21" stroke="#333" stroke-width="1"/>
  <line x1="96" y1="25" x2="99" y2="25" stroke="#333" stroke-width="1"/>
  <path d="M82 18 L96 10 L110 18z" fill="#243a56"/>
  <g fill="#4f6a8a">
    <rect x="30" y="94" width="2" height="2"/><rect x="40" y="96" width="2" height="2"/><rect x="52" y="93" width="2" height="2"/>
    <rect x="66" y="97" width="2" height="2"/><rect x="79" y="95" width="2" height="2"/><rect x="104" y="96" width="2" height="2"/>
    <rect x="118" y="93" width="2" height="2"/><rect x="133" y="97" width="2" height="2"/><rect x="147" y="94" width="2" height="2"/><rect x="160" y="96" width="2" height="2"/>
  </g>
  <text x="96" y="105" text-anchor="middle" font-family="monospace" font-size="6" fill="#4f6a8a">23:58 / FULL HOUSE</text>
</svg>
